<?xml version="1.0" standalone="yes"?>
<svg xmlns="http://www.w3.org/2000/svg" width="400" height="400">
<path style="fill:#010101; stroke:none;" d="M0 0L0 182L1 182C1.20071 109.264 60.5966 40.821 125 14.6034C142.661 7.41403 162.756 1.05301 182 1L164 0L128 0L0 0z"/>
<path style="fill:#2fc5f0; stroke:none;" d="M5 155L16 154L17 154L21 156L23 154L22 156L52 154C55.5342 148.101 72.4199 149.996 79 150L79 149L75 149L75 148L90 149L90 148L88 145L101 145C126.997 94.3836 169.818 51.7337 194 0C102.185 0 27.2565 69.0112 5 155z"/>
<path style="fill:#fefeff; stroke:none;" d="M53 337L55 337L186.601 120L231.8 45L254 7L213 0.714508L194.329 1.02777L181.308 20L149.947 69L54.9468 218L28.0532 260L17.0278 279L23.8619 296L53 337z"/>
<path style="fill:#2fc5f0; stroke:none;" d="M211 0L211 1L218 1L211 0z"/>
<path style="fill:#010101; stroke:none;" d="M218 0L218 1C237.294 1.05316 257.295 7.39603 275 14.6034C339.403 40.8209 398.8 109.264 399 182L400 182L400 0L218 0z"/>
<path style="fill:#2fc5f0; stroke:none;" d="M254 7L201.2 95L178 136C198.551 141.561 203.763 126.385 213.189 111C232.541 79.4136 257.351 46.9953 272 13L254 7z"/>
<path style="fill:#fefeff; stroke:none;" d="M272 13C225.678 88.6724 181.306 165.58 134.576 241C119.205 265.807 104.472 291.011 89.3989 316C83.6583 325.517 72.2093 338.061 69.966 348.985C68.969 353.841 75.7679 357.427 79 359.87C87.6363 366.399 104.673 381.329 116 380L131 388C179.906 305.072 225.452 220.135 274.012 137C286.972 114.812 299.412 92.3174 312.15 70C315.4 64.3064 325.876 51.7529 324.978 45.0903C324.374 40.608 316.381 36.6418 313 34.3441C300.167 25.6229 286.45 18.6063 272 13z"/>
<path style="fill:#2fc5f0; stroke:none;" d="M326 45C312.968 64.7599 302.334 86.4488 290.579 107C284.169 118.206 274.588 131.268 272 144L280 144L286 147L294 132L299 132C300.544 138.714 307.122 149.941 314.015 152.181C320.14 154.172 328.396 151.46 332 158L337 157L341 159L341 158L339 156L347 157L346 159L357 160L358 164C370.454 162.971 386.995 165.406 398 171C393.432 135.042 377.902 101.092 355.195 73C347.125 63.0163 337.56 50.9958 326 45z"/>
<path style="fill:#9ea3d3; stroke:none;" d="M220 98L221 99L220 98M217 103L218 104L217 103M125 107L126 108L125 107M121 113L122 114L121 113M188 116L189 117L188 116M209 116L210 117L209 116M285 116L286 117L285 116M17 117L18 118L17 117M118 118L119 119L118 118M187 118L188 119L187 118M284 118L285 119L284 118M116 121L117 122L116 121M185 121L186 122L185 121M206 121L207 122L206 121M184 123L185 124L184 123z"/>
<path style="fill:#5e62b2; stroke:none;" d="M14 124L15 125L14 124z"/>
<path style="fill:#9ea3d3; stroke:none;" d="M114 124L115 125L114 124M204 124L205 125L204 124M280 125L281 126L280 125M182 126L183 127L182 126M203 126L204 127L203 126M279 127L280 128L279 127M181 128L182 129L181 128M111 129L112 130L111 129M201 129L202 130L201 129M278 129L279 130L278 129M110 130L111 131L110 130M180 130L181 131L180 130M179 131L180 132L179 131M200 131L201 132L200 131M11 132L12 133L11 132M109 132L110 133L109 132M199 132L200 133L199 132M276 132L277 133L276 132M294 132L293 136L294 136L294 132z"/>
<path style="fill:#fefeff; stroke:none;" d="M295 132C287.83 152.989 271.266 175.526 259 194L259 195L343 340C357.149 329.179 368.29 310.498 376.691 295C379.378 290.045 384.334 282.892 383.629 277C382.997 271.717 378.119 266.388 375.369 262C369.796 253.108 364.656 243.939 359.156 235C344.524 211.22 330.173 187.188 316.215 163.015C310.33 152.823 302.171 143.02 298 132L295 132z"/>
<path style="fill:#9ea3d3; stroke:none;" d="M298 132L298 135L299 135L298 132M388 132L389 133L388 132M108 133L109 134L108 133M178 133L179 134L178 133M198 134L199 135L198 134M275 134L276 135L275 134M107 135L108 136L107 135M177 135L153 175L154 175C159.149 168.665 166.666 171.152 174 172L172 178L173 178L197 137L177 135M197.333 135.667L197.667 136.333L197.333 135.667M299 135L300 136L299 135M106.333 136.667L106.667 137.333L106.333 136.667M274 136L275 137L274 136M300.333 136.667L300.667 137.333L300.333 136.667M273.333 137.667L273.667 138.333L273.333 137.667M9 138L10 139L9 138M105 138L106 139L105 138M291 138L291 140L293 138L291 138M301 138L302 139L301 138M104.333 139.667L104.667 140.333L104.333 139.667M272.333 139.667L272.667 140.333L272.333 139.667M290 140L288 144L290 140M302 140L303 143L304 143L304 140L302 140z"/>
<path style="fill:#5e62b2; stroke:none;" d="M8 141L9 142L8 141z"/>
<path style="fill:#9ea3d3; stroke:none;" d="M102 141L101 145L102 145L104 141L102 141M271 141L246 186C252.062 181.549 255.757 182.084 263 183C261.786 186.768 258.031 190.989 258.522 195.075C259.085 199.746 263.537 205.111 265.989 209C272.305 219.018 278.218 237.282 288 244C280.71 228.586 270.69 207.39 259 195L259 194L277.975 163.17L288 144L287 144L286 147L280 144L272 144L271 141M304 143L305 144L304 143M88 145L90 148L90 149L75 148L75 149L79 149L79 150C72.7967 149.984 54.2571 147.598 52 154L22 156L23 154L21 156L15 157L15 158L27 157L46 160L47 160L53 160L52 158L53 158L71 161L88 162L80 178L81 178L101 145L88 145M305 144L309 150L305 144M84.6667 147.333L85.3333 147.667L84.6667 147.333M6 148L7 149L6 148M309 150C312.142 163.661 324.53 178.097 331.785 190.09C347.221 215.602 361.37 242.252 378 267L379 267L339 197C359.23 197.871 379.715 204.71 400 201C400 192.908 401.987 178.471 397.427 171.469C392.574 164.015 366.157 162.284 358 164L357 160L346 159L347 157L339 156L341 158L341 159L337 157L332 158C329.854 151.528 315.105 152.137 309 150z"/>
<path style="fill:#5e62b2; stroke:none;" d="M5.33333 152.667L5.66667 153.333L5.33333 152.667z"/>
<path style="fill:#2fc5f0; stroke:none;" d="M53 152L53 153L53 154L61 154L61 153L53 152z"/>
<path style="fill:#9ea3d3; stroke:none;" d="M394 152L395 153L394 152M41.6667 153.333L42.3333 153.667L41.6667 153.333z"/>
<path style="fill:#2fc5f0; stroke:none;" d="M62 153L63 154L62 153z"/>
<path style="fill:#5e62b2; stroke:none;" d="M15 278L17 278C31.8204 251.279 49.696 225.628 66.3434 200C73.5001 188.982 85.6432 175.06 88 162L71 161L52 158L53 160L47 160L46 160L27 157L15 158L15 157L18 157C0.00847435 149.431 0.954834 172.364 0.0895062 185C-2.15427 217.766 4.95945 247.195 15 278z"/>
<path style="fill:#9ea3d3; stroke:none;" d="M16.3333 154.667L16.6667 155.333L16.3333 154.667M7 155L8 156L7 155M9.66667 155.333L10.3333 155.667L9.66667 155.333z"/>
<path style="fill:#2fc5f0; stroke:none;" d="M50 155L51 156L50 155M30.6667 156.333L31.3333 156.667L30.6667 156.333z"/>
<path style="fill:#9ea3d3; stroke:none;" d="M334 156L335 157L334 156z"/>
<path style="fill:#2fc5f0; stroke:none;" d="M11 157L12 158L11 157z"/>
<path style="fill:#9ea3d3; stroke:none;" d="M349 157L350 158L349 157z"/>
<path style="fill:#5e62b2; stroke:none;" d="M46 158L47 159L46 158z"/>
<path style="fill:#2fc5f0; stroke:none;" d="M342.667 158.333L343.333 158.667L342.667 158.333z"/>
<path style="fill:#9ea3d3; stroke:none;" d="M352 158L353 159L352 158M395 158L396 159L395 158M396 161L397 162L396 161M390 166L391 167L390 166M397 167L398 168L397 167z"/>
<path style="fill:#5e62b2; stroke:none;" d="M69 350C91.5526 307.635 118.897 267.173 143.6 226C153.001 210.332 170.745 190.039 174 172C169.34 170.982 161.659 168.837 157.185 171.168C148.995 175.436 142.245 193.22 137.424 201C116.285 235.117 95.6817 269.604 75 304C66.0949 318.81 45.0237 339.848 69 350z"/>
<path style="fill:#9ea3d3; stroke:none;" d="M152 176L153 177L152 176M151.333 177.667L151.667 178.333L151.333 177.667M79 179L80 180L79 179M150 179L151 180L150 179M171 179L172 180L171 179M78 180L79 181L78 180M170.333 180.667L170.667 181.333L170.333 180.667M149 181L150 182L149 181z"/>
<path style="fill:#5e62b2; stroke:none;" d="M132 389C150.181 393.168 167.53 398.428 186.285 399.845C212.832 401.85 238.592 397.21 264 390C255.173 363.18 233.304 338.419 219.353 314.001C215.449 307.169 204.737 296.092 204.809 288C204.852 283.222 209.402 277.889 211.808 274C217.542 264.728 223.346 255.447 228.785 246C233.798 237.293 239.999 220.788 249 216L271.989 255.424L330 352C333.646 349.507 340.213 345.662 341.173 340.996C341.916 337.383 338.472 332.964 336.785 330.004C331.637 320.965 326.382 311.983 321.142 303C307.456 279.538 294.543 255.6 280.371 232.424C274.254 222.42 260.519 206.625 258.908 195.075C258.345 191.039 262.22 186.929 263 183C259.354 182.321 253.8 180.497 250.301 182.269C246.222 184.334 244.02 190.272 241.799 194C235.494 204.587 229.374 215.289 223.281 226C202.21 263.041 180.976 299.988 159.85 337C151.16 352.223 135.313 371.821 132 389z"/>
<path style="fill:#9ea3d3; stroke:none;" d="M77 182L78 183L77 182M148.333 182.667L148.667 183.333L148.333 182.667M169 182L170 183L169 182z"/>
<path style="fill:#5e62b2; stroke:none;" d="M399 182L400 183L399 182z"/>
<path style="fill:#9ea3d3; stroke:none;" d="M76.3333 183.667L76.6667 184.333L76.3333 183.667z"/>
<path style="fill:#2fc5f0; stroke:none;" d="M399 183L400 184L399 183z"/>
<path style="fill:#9ea3d3; stroke:none;" d="M147 184L148 185L147 184M168 184L169 185L168 184M75 185L76 186L75 185M167.333 185.667L167.667 186.333L167.333 185.667M146 186L147 187L146 186M74 187L75 188L74 187M145 187L146 188L145 187M166 187L167 188L166 187M245 187L246 188L245 187M73 188L74 189L73 188M244.333 188.667L244.667 189.333L244.333 188.667M144 189L145 190L144 189M165 189L166 190L165 189M72 190L73 191L72 190M243.333 190.667L243.667 191.333L243.333 190.667M71 191L72 192L71 191M143 191L144 192L143 191M164 191L165 192L164 191M142 192L143 193L142 192M163 192L164 193L163 192M242 192L243 193L242 192M70 193L71 194L70 193M241.333 193.667L241.667 194.333L241.333 193.667M141 194L142 195L141 194M162 194L163 195L162 194M69 195L70 196L69 195M140.333 195.667L140.667 196.333L140.333 195.667M240.333 195.667L240.667 196.333L240.333 195.667M68 196L69 197L68 196M161 196L162 197L161 196M139 197L140 198L139 197M160 197L161 198L160 197M239 197L240 198L239 197z"/>
<path style="fill:#5e62b2; stroke:none;" d="M339 197L348.909 216.17L371.786 255.001L386 276C392.088 250.31 400 227.924 400 201L339 197z"/>
<path style="fill:#9ea3d3; stroke:none;" d="M67 198L68 199L67 198M66 199L67 200L66 199M138 199L139 200L138 199M159 199L160 200L159 199M238 199L239 200L238 199M137 200L138 201L137 200M237.333 200.667L237.667 201.333L237.333 200.667M65 201L66 202L65 201M158 201L159 202L158 201M64 202L65 203L64 202M136 202L137 203L136 202M157 202L158 203L157 202M236.333 202.667L236.667 203.333L236.333 202.667M63 204L64 205L63 204M135 204L136 205L135 204M156 204L157 205L156 204M235 204L236 205L235 204M134 205L135 206L134 205M62 206L63 207L62 206M155 206L156 207L155 206M234 206L235 207L234 206M61 207L62 208L61 207M133 207L134 208L133 207M154 207L155 208L154 207M233.333 207.667L233.667 208.333L233.333 207.667M60 209L61 210L60 209M132 209L133 210L132 209M153 209L154 210L153 209M232 209L233 210L232 209M59 210L60 211L59 210M131 210L132 211L131 210M152 211L153 212L152 211M231 211L232 212L231 211M58 212L59 213L58 212M130 212L131 213L130 212M151 212L152 213L151 212M230 213L231 214L230 213M129 214L130 215L129 214M150 214L151 215L150 214M229.333 214.667L229.667 215.333L229.333 214.667M56 215L57 216L56 215M128 215L129 216L128 215M149 216L150 217L149 216M228 216L229 217L228 216M240 227L241 227L247 217L270 254L271 254L249 216C244.3 217.506 241.778 222.587 240 227M55 217L56 218L55 217M127 217L128 218L127 217M148 217L149 218L148 217z"/>
<path style="fill:#fefeff; stroke:none;" d="M247 217C235.872 233.495 226.288 251.088 215.808 268C212.404 273.494 204.871 282.163 205.587 288.961C206.243 295.185 212.57 302.936 215.961 308.09C224.371 320.872 232.764 333.821 240.543 347C246.414 356.946 252.497 366.881 258.048 377C260.027 380.607 262.405 387.196 267.04 388.018C271.21 388.757 277.273 384.888 281 383.281C293.299 377.977 305.091 371.368 316 363.573C319.386 361.153 328.981 356.156 328.377 351.196C327.925 347.484 324.151 343.151 322.272 340.001C317.086 331.302 311.888 322.626 306.579 314C293.543 292.816 280.88 271.357 268.131 250C261.762 239.331 255.987 225.638 247 217z"/>
<path style="fill:#010101; stroke:none;" d="M0 218L0 400L183 400L183 399C113.697 398.809 46.1874 344.724 18.3086 284C12.2992 270.911 7.52771 257.071 4.42438 243C2.6919 235.145 3.06649 225.291 0 218z"/>
<path style="fill:#9ea3d3; stroke:none;" d="M54 218L55 219L54 218M227 218L228 219L227 218z"/>
<path style="fill:#010101; stroke:none;" d="M399 218C398.951 235.929 393.277 254.353 387.05 271C362.002 337.966 291.336 398.795 217 399L217 400L400 400L400 272L400 236L399 218z"/>
<path style="fill:#9ea3d3; stroke:none;" d="M147 219L148 220L147 219M53 220L54 221L53 220M125 220L126 221L125 220M226 220L227 221L226 220M52 221L53 222L52 221M146 221L147 222L146 221M225.333 221.667L225.667 222.333L225.333 221.667M124 222L125 223L124 222M145 222L146 223L145 222M51 223L52 224L51 223M123 223L124 224L123 223M224 223L225 224L224 223M50 224L51 225L50 224M144 224L145 225L144 224M122 225L123 226L122 225M223 225L224 226L223 225M49 226L50 227L49 226M143 226L144 227L143 226M121 227L122 228L121 227M142 227L143 228L142 227M222 227L223 228L222 227M48 228L49 229L48 228M120 228L121 229L120 228M221.333 228.667L221.667 229.333L221.333 228.667M239 228L238 231L239 228M47 229L48 230L47 229M141 229L142 230L141 229M119 230L120 231L119 230M220 230L221 231L220 230M46 231L47 232L46 231M140 231L141 232L140 231M237 231L238 232L237 231M45 232L46 233L45 232M118 232L119 233L118 232M139 232L140 233L139 232M219 232L220 233L219 232M236 232L236 235L237 235L236 232M117 233L118 234L117 233M44 234L45 235L44 234M138 234L139 235L138 234M218 234L219 235L218 234M43 235L44 236L43 235M116 235L117 236L116 235M217 235L218 236L217 235M235 235L236 236L235 235M137 236L138 237L137 236M234 236L233 240L234 240L234 236M42 237L43 238L42 237M115 237L116 238L115 237M136 237L137 238L136 237M216 237L217 238L216 237M114 238L115 239L114 238M135 239L136 240L135 239M215 239L216 240L215 239M40 240L41 241L40 240M113 240L114 241L113 240M231 240L231 243L232 243L231 240M134 241L135 242L134 241M214 241L215 242L214 241M39 242L40 243L39 242M112 242L113 243L112 242M133 242L134 243L133 242M213 242L214 243L213 242M38 243L39 244L38 243M111 243L112 244L111 243M230 243L231 244L230 243M132 244L133 245L132 244M212 244L213 245L212 244M229.333 244.667L229.667 245.333L229.333 244.667M37 245L38 246L37 245M110 245L111 246L110 245M36 246L37 247L36 246M211 246L212 247L211 246M228.333 246.667L228.667 247.333L228.333 246.667M288 246L289 247L288 246M109 247L110 248L109 247M130 247L131 248L130 247M289.333 247.667L289.667 248.333L289.333 247.667M35 248L36 249L35 248M108 248L109 249L108 248M210 248L211 249L210 248M227 248L228 249L227 248M129 249L130 250L129 249M209 249L210 250L209 249M226 249L226 252L227 252L226 249M290 249L292 252L290 249M107 250L108 251L107 250M33 251L34 252L33 251M106 251L107 252L106 251M208 251L209 252L208 251M127 252L128 253L127 252M224.333 252.667L224.667 253.333L224.333 252.667M292 252L293 253L292 252M32 253L33 254L32 253M105 253L106 254L105 253M207 253L208 254L207 253M293 253L295 256L293 253M31 254L32 255L31 254M126 254L127 255L126 254M223.333 254.667L223.667 255.333L223.333 254.667M104 255L105 256L104 255M206 255L207 256L206 255M271 255L272 258L273 258L273 255L271 255M30 256L31 257L30 256M103 256L104 257L103 256M205 256L206 257L205 256M222 256L223 257L222 256M29 257L30 258L29 257M124 257L125 258L124 257M221 257L221 260L222 260L221 257M102 258L103 259L102 258M204 258L205 259L204 258M273 258L274 259L273 258M295 258L296 259L295 258M28 259L29 260L28 259M123 259L124 260L123 259M274.333 259.667L274.667 260.333L274.333 259.667M296.333 259.667L296.667 260.333L296.333 259.667M101 260L102 261L101 260M203 260L204 261L203 260M220 260L221 261L220 260M100 261L101 262L100 261M219 261L218 264L219 261M275 261L276 262L275 261M297 261L298 262L297 261M26 262L27 263L26 262M121 262L122 263L121 262M298.333 262.667L298.667 263.333L298.333 262.667M99 263L100 264L99 263M201 263L202 264L201 263M276 263L277 264L276 263M25 264L26 265L25 264M120 264L121 265L120 264M217.333 264.667L217.667 265.333L217.333 264.667M277 264L277 267L278 267L277 264M299 264L300 265L299 264M24 265L25 266L24 265M98 265L99 266L98 265M200 265L201 266L200 265M97 266L98 267L97 266M216 266L217 267L216 266M23 267L24 268L23 267M118 267L119 268L118 267M199 267L200 268L199 267M278 267L280 269L280 267L278 267M300 267L301 270L302 270L302 267L300 267M22 268L23 269L22 268M96 268L97 269L96 268M215 268L216 269L215 268M379 268L380 269L379 268M117 269L118 270L117 269M214.333 269.667L214.667 270.333L214.333 269.667M280.333 269.667L280.667 270.333L280.333 269.667M380.333 269.667L380.667 270.333L380.333 269.667M21 270L22 271L21 270M95 270L96 271L95 270M302 270L303 271L302 270M94 271L95 272L94 271M197 271L198 272L197 271M213 271L214 272L213 271M281 271L281 273L283 273L281 271M303.333 271.667L303.667 272.333L303.333 271.667M381 271L382 274L383 274L383 271L381 271M115 272L116 273L115 272M196 272L197 273L196 272M212.333 272.667L212.667 273.333L212.333 272.667M19 273L20 274L19 273M93 273L94 274L93 273M304 273L305 274L304 273M114 274L115 275L114 274M195 274L196 275L195 274M211 274L212 275L211 274M283.333 274.667L283.667 275.333L283.333 274.667M305.333 274.667L305.667 275.333L305.333 274.667M383 274L384 275L383 274M18 275L19 276L18 275M92 275L93 276L92 275M17 276L18 277L17 276M91 276L92 277L91 276M194 276L195 277L194 276M210 276L209 279L210 276M284.333 276.667L284.667 277.333L284.333 276.667M306 276L307 277L306 276M384.333 276.667L384.667 277.333L384.333 276.667M112 277L113 278L112 277M16 278L17 279L16 278M90 278L91 279L90 278M193 278L194 279L193 278M285 278L286 281L287 281L287 278L285 278M111 279L112 280L111 279M192 279L193 280L192 279M208 279L209 280L208 279M307 279L308 282L309 282L309 279L307 279M89 280L90 281L89 280M207 280L207 283L208 283L207 280M88 281L89 282L88 281M191 281L192 282L191 281M287 281L288 282L287 281M109 282L110 283L109 282M309 282L310 283L309 282M87 283L88 284L87 283M190 283L191 284L190 283M206 283L207 284L206 283M288 283L290 286L288 283M310.333 283.667L310.667 284.333L310.333 283.667M108 284L109 285L108 284M205.333 284.667L205.667 285.333L205.333 284.667M86 285L87 286L86 285M311 285L312 286L311 285M85 286L86 287L85 286M188 286L189 287L188 286M204 286L205 292L206 292L204 286M290 286L291 287L290 286M106 287L107 288L106 287M291 287L293 290L291 287M312 287L313 288L312 287M84 288L85 289L84 288M187 288L188 289L187 288M313 288L313 291L314 291L313 288M83.3333 289.667L83.6667 290.333L83.3333 289.667M105 289L106 290L105 289M186 290L187 291L186 290M293 290L293 293L294 293L293 290M82 291L83 292L82 291M314 291L315 292L314 291M103 292L104 293L103 292M315.333 292.667L315.667 293.333L315.333 292.667M81 293L82 294L81 293M184 293L185 294L184 293M206 293L208 295L208 293L206 293M294 293L295 294L294 293M102 294L103 295L102 294M295 294L296 298L297 298L295 294M316 294L317 295L316 294M80 295L81 296L80 295M183 295L184 296L183 295M208 295L209 296L208 295M317.333 295.667L317.667 296.333L317.333 295.667M79 296L80 297L79 296M209 296L211 299L209 296M100 297L101 298L100 297M182 297L183 298L182 297M318.333 297.667L318.667 298.333L318.333 297.667M78 298L79 299L78 298M297 298L298 299L297 298M77 299L78 300L77 299M99 299L100 300L99 299M298 299L300 302L298 299M319 299L320 300L319 299M180 300L181 301L180 300M320 300L320 303L321 303L320 300M76 301L77 302L76 301M211 301L212 302L211 301M97 302L98 303L97 302M179 302L180 303L179 302M212 302L212 305L213 305L212 302M75 303L76 304L75 303M300 303L301 304L300 303M321 303L322 304L321 303M74 304L75 305L74 304M96 304L97 305L96 304M178 304L179 305L178 304M301.333 304.667L301.667 305.333L301.333 304.667M322.333 304.667L322.667 305.333L322.333 304.667M95 305L96 306L95 305M213 305L215 307L215 305L213 305M73 306L74 307L73 306M302 306L303 307L302 306M323 306L324 307L323 306M94 307L95 308L94 307M176 307L177 308L176 307M303 307L303 310L304 310L303 307M72 308L73 309L72 308M216.333 308.667L216.667 309.333L216.333 308.667M324 308L325 309L324 308M71 309L72 310L71 309M93 309L94 310L93 309M175 309L176 310L175 309M325.333 309.667L325.667 310.333L325.333 309.667M92 310L93 311L92 310M217 310L218 311L217 310M304 310L305 311L304 310M70 311L71 312L70 311M174 311L175 312L174 311M305 311L307 314L305 311M91 312L92 313L91 312M218 312L219 313L218 312M327 312L327 315L328 315L327 312M69 313L70 314L69 313M219.333 313.667L219.667 314.333L219.333 313.667M68 314L69 315L68 314M90 314L91 315L90 314M172 314L173 315L172 314M89 315L90 316L89 315M220 315L221 316L220 315M307 315L308 318L309 318L309 315L307 315M328 315L329 316L328 315M67 316L68 317L67 316M171 316L172 317L171 316M221 316L221 319L222 319L221 316M329 316L330 320L331 320L329 316M88 317L89 318L88 317M66 318L67 319L66 318M170 318L171 319L170 318M309 318L310 319L309 318M65 319L66 320L65 319M87 319L88 320L87 319M222 319L223 320L222 319M310 319L312 322L310 319M86 320L87 321L86 320M169 320L170 321L169 320M223 320L224 321L223 320M331 320L332 321L331 320M64 321L65 322L64 321M168 321L169 322L168 321M224.333 321.667L224.667 322.333L224.333 321.667M332 321L332 324L333 324L332 321M85 322L86 323L85 322M63 323L64 324L63 323M167 323L168 324L167 323M225 323L226 324L225 323M312 323L313 324L312 323M62 324L63 325L62 324M226.333 324.667L226.667 325.333L226.333 324.667M313 324L313 327L314 327L313 324M334 324L334 327L335 327L334 324M83 325L84 326L83 325M166 325L167 326L166 325M61 326L62 327L61 326M227 326L228 327L227 326M82 327L83 328L82 327M165 327L166 328L165 327M314 327L316 329L316 327L314 327M335 327L336 328L335 327M60 328L61 329L60 328M228 328L229 329L228 328M336 328L337 332L338 332L336 328M59 329L60 330L59 329M229 329L230 330L229 329M316 329L317 330L316 329M80 330L81 331L80 330M163 330L164 331L163 330M230 330L231 331L230 330M317 330L319 333L317 330M58 331L59 332L58 331M231 331L231 334L232 334L231 331M79 332L80 333L79 332M162 332L163 333L162 332M338 332L339 333L338 332M57 333L58 334L57 333M339 333L339 336L340 336L339 333M56 334L57 335L56 334M161 334L162 335L161 334M232 334L233 335L232 334M319.333 334.667L319.667 335.333L319.333 334.667M77 335L78 336L77 335M233 335L235 338L233 335M55 336L56 337L55 336M320 336L322 341L323 341L320 336M340 336L341 337L340 336M54 337L55 338L54 337M76 337L77 338L76 337M159 337L160 338L159 337M341.333 337.667L341.667 338.333L341.333 337.667M158 339L159 340L158 339M235 339L238 343L235 339M342.333 339.667L342.667 340.333L342.333 339.667M74 340L75 341L74 340M157 341L158 342L157 341M323 341L324 342L323 341M73 342L74 343L73 342M324 342L325 346L326 346L324 342M72 343L73 344L72 343M238 343L240 346L238 343M155 344L156 345L155 344M71 345L72 346L71 345M154 346L155 347L154 346M326 346L329 350L326 346M70 347L71 348L70 347M240 347L241 348L240 347M69 348L70 349L69 348M153 348L154 349L153 348M241 348L244 355L245 355L241 348M68 350L69 351L68 350M152 350L153 351L152 350M329 350L329 353L330 353L329 350M151.333 351.667L151.667 352.333L151.333 351.667M150 353L151 354L150 353M149 355L150 356L149 355M245 355L249 364L250 364L245 355M148 357L149 358L148 357M147.333 358.667L147.667 359.333L147.333 358.667M146 360L147 361L146 360M145 362L146 363L145 362M144 364L145 365L144 364M250 364L251 368L252 368L250 364M143 366L144 367L143 366M142 367L143 368L142 367M252 368L253 369L252 368M141 369L142 370L141 369M253 369L256 374L253 369M140 371L141 372L140 371M139 373L140 374L139 373M138.333 374.667L138.667 375.333L138.333 374.667M256 374L257 375L256 374M257 375L260 381L257 375M137 376L138 377L137 376M136 378L137 379L136 378M114 379L115 380L114 379M115.333 380.667L115.667 381.333L115.333 380.667M135 380L136 381L135 380M134.333 381.667L134.667 382.333L134.333 381.667M260 381L263 386L260 381M133 383L134 384L133 383M132 385L133 386L132 385M263 386L265 390L263 386M131 387L132 388L131 387z"/>
<path style="fill:#2fc5f0; stroke:none;" d="M141 391L142 392L141 391M258 391L259 392L258 391z"/>
<path style="fill:#9ea3d3; stroke:none;" d="M148 393L149 394L148 393M251 393L252 394L251 393M152 394L153 395L152 394M161 396L162 397L161 396M238 396L239 397L238 396M167 397L168 398L167 397M232 397L233 398L232 397M174 398L175 399L174 398M184 399L185 400L184 399z"/>
</svg>
